Coordinates
version=1
nRows=26
nColumns=24
inDegrees=yes

Units are S.I. units (second, meters, Newtons, ...)
Angles are in degrees.

endheader
time	pelvis_tilt	pelvis_list	pelvis_rotation	pelvis_tx	pelvis_ty	pelvis_tz	hip_flexion_r	hip_adduction_r	hip_rotation_r	knee_angle_r	ankle_angle_r	subtalar_angle_r	mtp_angle_r	hip_flexion_l	hip_adduction_l	hip_rotation_l	knee_angle_l	ankle_angle_l	subtalar_angle_l	mtp_angle_l	lumbar_extension	lumbar_bending	lumbar_rotation
      3.40500000	    -20.53348313	     11.49209679	     -3.77293952	     -2.35213369	     -0.03653136	     -0.31554390	     19.55700111	     -8.74413539	      2.63717023	    -57.91959072	    -41.22747974	    -12.97946742	     11.98683005	     41.08822656	     14.67173308	      6.10167626	    -25.15340981	     13.39708168	     -2.35595524	    -73.95022986	     15.62574339	     -9.86315200	      8.86673411
      3.41000000	    -20.62409429	     11.50395612	     -3.77645006	     -2.34497808	     -0.03539578	     -0.31560933	     20.90352351	     -8.46146215	      3.00843864	    -59.35734145	    -39.28325516	    -14.35637422	     10.26659664	     40.40993543	     14.70060907	      6.06746400	    -24.75940454	     13.94098115	     -2.04926577	    -74.06773256	     15.73697043	     -9.82307077	      8.66079468
      3.41500000	    -20.58585088	     11.56369502	     -3.79928831	     -2.33783183	     -0.03409682	     -0.31566834	     22.12060661	     -8.23983224	      3.37268629	    -60.72597697	    -37.20139730	    -15.56293661	      7.97773443	     39.54237688	     14.81317105	      6.19207104	    -24.25401301	     14.37913843	     -1.97666388	    -74.38535296	     15.70742871	     -9.83924423	      8.46745500
      3.42000000	    -20.59746464	     11.57864785	     -3.80358463	     -2.33067216	     -0.03283467	     -0.31567505	     23.34748702	     -7.94646619	      3.74466597	    -61.94667681	    -35.21389215	    -16.70166523	      6.00784567	     38.71297876	     14.88090229	      6.32232945	    -23.73394985	     14.79413775	     -1.89611388	    -74.69407993	     15.73773140	     -9.81638900	      8.25209127
      3.42500000	    -20.54700973	     11.59887232	     -3.80278624	     -2.32348391	     -0.03148470	     -0.31569125	     24.48023209	     -7.67151812	      4.10764035	    -63.04521115	    -33.28034409	    -17.70498923	      4.16092128	     37.77318581	     14.98618949	      6.58097560	    -23.13674633	     15.09162806	     -1.97701211	    -74.92007293	     15.70233307	     -9.80770396	      8.02283973
      3.43000000	    -20.52853581	     11.60377235	     -3.80470131	     -2.31632375	     -0.03017596	     -0.31565528	     25.63491176	     -7.36277403	      4.48944052	    -64.03798326	    -31.49420000	    -18.64046262	      2.56972523	     36.84739369	     15.06979370	      6.89143918	    -22.50326391	     15.32283768	     -2.09833691	    -74.98127204	     15.70399951	     -9.78426745	      7.78742201
      3.43500000	    -20.48138877	     11.57039609	     -3.84016506	     -2.30916176	     -0.02880653	     -0.31562674	     26.71609031	     -7.01202783	      4.88834086	    -64.85109264	    -30.01635147	    -19.65422029	      1.97963799	     35.86374434	     15.11885988	      7.25501514	    -21.81968505	     15.45086388	     -2.37937334	    -74.94052621	     15.67836183	     -9.70753619	      7.63973781
      3.44000000	    -20.36405555	     11.52300816	     -3.75000818	     -2.30202306	     -0.02743386	     -0.31568589	     27.69561530	     -6.74255529	      5.06818038	    -65.66672246	    -28.05858137	    -20.27025946	     -0.03554442	     34.79974087	     15.23385562	      7.72133309	    -21.14797169	     15.50537656	     -2.64003304	    -74.66824370	     15.54196829	     -9.67566918	      7.26613388
      3.44500000	    -20.33755320	     11.46906636	     -3.72944400	     -2.29484733	     -0.02611348	     -0.31564097	     28.75254712	     -6.41505874	      5.35499338	    -66.30682204	    -26.53498896	    -21.03707707	     -0.81247567	     33.78410260	     15.28430452	      8.22022050	    -20.37497258	     15.47660367	     -3.01997626	    -74.41969663	     15.53738015	     -9.60629742	      7.01088392
      3.45000000	    -20.30440288	     11.39125191	     -3.76314730	     -2.28777741	     -0.02480882	     -0.31553271	     29.79652207	     -6.04078351	      5.67569984	    -66.82361408	    -25.22672358	    -21.87957946	     -0.95433153	     32.77378539	     15.27578947	      8.66806587	    -19.60208753	     15.46312613	     -3.41454659	    -74.31954887	     15.51475608	     -9.49539692	      6.82698697
      3.45500000	    -20.10689959	     11.25757454	     -3.74374393	     -2.28054367	     -0.02326865	     -0.31538989	     30.58933578	     -5.68998033	      5.78314531	    -67.25012181	    -23.40843045	    -22.39092310	     -2.77790178	     31.50440699	     15.26186143	      9.30219753	    -18.72857984	     15.20559979	     -3.89719038	    -73.35962461	     15.32024106	     -9.38093056	      6.55112520
      3.46000000	    -20.14565482	     11.05350917	     -3.61582619	     -2.27356281	     -0.02207809	     -0.31545621	     31.60807376	     -5.30035816	      5.88899774	    -67.55087151	    -21.86376884	    -22.77612508	     -2.64512908	     30.55983937	     15.19228661	      9.96733069	    -17.98667860	     15.14476567	     -4.27494245	    -73.21901879	     15.32720149	     -9.19011877	      6.11673543
      3.46500000	    -20.03910744	     10.83672608	     -3.56071482	     -2.26649353	     -0.02067145	     -0.31542130	     32.42435294	     -4.90372211	      5.98276146	    -67.68629093	    -20.34280822	    -23.18223958	     -2.57722624	     29.39863569	     15.08410216	     10.69129531	    -17.12773184	     14.97465923	     -4.78628570	    -73.01468307	     15.19843093	     -8.98589023	      5.79456336
      3.47000000	    -19.95927658	     10.56950502	     -3.48161926	     -2.25948506	     -0.01930538	     -0.31536651	     33.23213736	     -4.48086942	      6.01120482	    -67.69794399	    -18.80756479	    -23.49244660	     -2.45580653	     28.28313194	     14.90975271	     11.39980116	    -16.30303878	     14.80707588	     -5.21219427	    -72.74185172	     15.08481379	     -8.74104834	      5.43175261
      3.47500000	    -19.86112673	     10.30770884	     -3.45999353	     -2.25248461	     -0.01793109	     -0.31526601	     34.00431731	     -4.05215649	      6.05651299	    -67.58557859	    -17.33379768	    -23.80141959	     -2.39261419	     27.12018744	     14.70840799	     12.17699573	    -15.40717738	     14.46202231	     -5.80793142	    -72.07288172	     14.96195709	     -8.48415318	      5.17991087
      3.48000000	    -19.79126954	      9.98858332	     -3.36270640	     -2.24559148	     -0.01663309	     -0.31519377	     34.75805381	     -3.61162259	      6.03799431	    -67.35468224	    -15.85191175	    -23.90452456	     -2.03611793	     26.04320454	     14.44845346	     12.88914447	    -14.62301641	     14.27212752	     -6.12347521	    -71.50569863	     14.83975036	     -8.20093748	      4.79383509
      3.48500000	    -19.77538205	      9.60007777	     -3.22211389	     -2.23873416	     -0.01537457	     -0.31514934	     35.51364079	     -3.14228750	      5.93074261	    -66.96780516	    -14.48112138	    -23.95808653	     -1.60626558	     25.08549702	     14.10541546	     13.38506710	    -13.94191884	     14.22567064	     -6.18557839	    -71.24768373	     14.76242768	     -7.85184085	      4.34228986
      3.49000000	    -19.71198310	      9.24772232	     -3.11074287	     -2.23192377	     -0.01410181	     -0.31508590	     36.19895630	     -2.70614659	      5.88691579	    -66.47267303	    -13.18671441	    -23.91505071	     -1.04726258	     24.05807876	     13.78143489	     14.03674463	    -13.20480016	     14.04464464	     -6.40360352	    -70.96692601	     14.63461832	     -7.53761292	      3.95763422
      3.49500000	    -19.67364703	      8.89060765	     -2.98890594	     -2.22515774	     -0.01291544	     -0.31501067	     36.88452204	     -2.28584129	      5.82164514	    -65.86589265	    -12.03641118	    -23.84344701	     -0.41216718	     23.09440333	     13.43716113	     14.61983182	    -12.52131715	     13.90833116	     -6.53566758	    -70.67959574	     14.53030944	     -7.22401799	      3.58447645
      3.50000000	    -19.71059424	      8.54920970	     -2.87420365	     -2.21844833	     -0.01184683	     -0.31508876	     37.61141392	     -1.89687957	      5.84383270	    -65.04155986	    -11.65558321	    -24.19981331	      2.43019335	     22.19150898	     13.11440271	     15.40754838	    -11.77815108	     13.18946883	     -7.07012370	    -68.49522473	     14.50536492	     -6.89712565	      3.22019248
      3.50500000	    -19.65315622	      8.23263944	     -2.76950121	     -2.21177493	     -0.01078615	     -0.31489202	     38.23468986	     -1.51900400	      5.82900566	    -64.26229405	    -10.60127827	    -23.88589320	      2.83928041	     21.31395249	     12.76942396	     15.67180751	    -11.24397698	     13.23378624	     -6.84147622	    -68.37943227	     14.37674933	     -6.63810174	      2.89788335
      3.51000000	    -19.57582571	      7.94964074	     -2.67327026	     -2.20504903	     -0.00975159	     -0.31484202	     38.80030813	     -1.20382726	      5.84954874	    -63.35346845	     -9.82585517	    -23.65052357	      3.83020859	     20.34900744	     12.47318487	     16.25230967	    -10.58181351	     12.97336722	     -7.09992456	    -68.09791262	     14.23672234	     -6.38520146	      2.58321165
      3.51500000	    -19.60150386	      7.63720478	     -2.46383047	     -2.19842645	     -0.00891295	     -0.31477439	     39.44271805	     -0.91921285	      5.75756202	    -62.37778877	     -9.05442309	    -23.32880644	      4.36083502	     19.62894306	     12.15912178	     16.54476423	    -10.17096439	     13.03539592	     -6.79981368	    -67.96268231	     14.18359889	     -6.15093199	      2.16059898
      3.52000000	    -19.60338912	      7.37220347	     -2.30359451	     -2.19179743	     -0.00809886	     -0.31484670	     40.01517181	     -0.68394271	      5.80467485	    -61.19640885	     -8.90352394	    -23.37671575	      7.04716125	     18.82477134	     11.89979269	     17.11654987	     -9.62714910	     12.66706100	     -7.06513867	    -67.18915812	     14.11378304	     -5.92188656	      1.79408667
      3.52500000	    -19.57138351	      7.14283496	     -2.15409195	     -2.18515873	     -0.00738146	     -0.31467860	     40.55224813	     -0.45684906	      5.82806843	    -60.07605228	     -8.20574298	    -22.90713840	      7.46825969	     18.07883199	     11.64701134	     17.27154424	     -9.24772812	     12.73136096	     -6.75972938	    -67.08104313	     14.01296503	     -5.75911334	      1.48265628
      3.53000000	    -19.47651607	      6.95602679	     -2.04841379	     -2.17846357	     -0.00662962	     -0.31456979	     40.96843917	     -0.26472175	      5.96475448	    -58.78827501	     -7.85419730	    -22.62473364	      9.07752814	     17.19768482	     11.43995153	     17.71181591	     -8.73258369	     12.43529346	     -6.98481198	    -66.71836474	     13.85566058	     -5.61795523	      1.22446668
